<svg width="28" height="32" viewBox="0 0 28 32" fill="none" xmlns="http://www.w3.org/2000/svg">
<path d="M23.8062 6.06875C21.1875 3.44375 17.7 2 13.9937 2C6.34375 2 0.11875 8.225 0.11875 15.875C0.11875 18.3187 0.75625 20.7062 1.96875 22.8125L0 30L7.35625 28.0687C9.38125 29.175 11.6625 29.7562 13.9875 29.7562H13.9937C21.6375 29.7562 28 23.5312 28 15.8812C28 12.175 26.425 8.69375 23.8062 6.06875ZM13.9937 27.4187C11.9187 27.4187 9.8875 26.8625 8.11875 25.8125L7.7 25.5625L3.3375 26.7062L4.5 22.45L4.225 22.0125C3.06875 20.175 2.4625 18.0562 2.4625 15.875C2.4625 9.51875 7.6375 4.34375 14 4.34375C17.0812 4.34375 19.975 5.54375 22.15 7.725C24.325 9.90625 25.6625 12.8 25.6562 15.8812C25.6562 22.2437 20.35 27.4187 13.9937 27.4187ZM20.3187 18.7812C19.975 18.6062 18.2687 17.7687 17.95 17.6562C17.6312 17.5375 17.4 17.4812 17.1687 17.8312C16.9375 18.1812 16.275 18.9562 16.0687 19.1937C15.8687 19.425 15.6625 19.4562 15.3187 19.2812C13.2812 18.2625 11.9437 17.4625 10.6 15.1562C10.2437 14.5437 10.9562 14.5875 11.6187 13.2625C11.7312 13.0312 11.675 12.8312 11.5875 12.6562C11.5 12.4812 10.8062 10.775 10.5187 10.0812C10.2375 9.40625 9.95 9.5 9.7375 9.4875C9.5375 9.475 9.30625 9.475 9.075 9.475C8.84375 9.475 8.46875 9.5625 8.15 9.90625C7.83125 10.2562 6.9375 11.0937 6.9375 12.8C6.9375 14.5062 8.18125 16.1562 8.35 16.3875C8.525 16.6187 10.7937 20.1187 14.275 21.625C16.475 22.575 17.3375 22.6562 18.4375 22.4937C19.1062 22.3937 20.4875 21.6562 20.775 20.8437C21.0625 20.0312 21.0625 19.3375 20.975 19.1937C20.8937 19.0375 20.6625 18.95 20.3187 18.7812Z" fill="url(#paint0_linear_720_148)"/>
<defs>
<linearGradient id="paint0_linear_720_148" x1="14" y1="2" x2="14" y2="30" gradientUnits="userSpaceOnUse">
<stop stop-color="#B0FF57"/>
<stop offset="1" stop-color="#66FF31"/>
</linearGradient>
</defs>
</svg>
