<svg width="22" height="22" viewBox="0 0 24 24" fill="none" xmlns="http://www.w3.org/2000/svg">
<g clip-path="url(#clip0_702_179)">
<path d="M3.68424 0.234389C3.23893 -0.112486 2.60611 -0.0702983 2.20299 0.328139L0.327988 2.20314C-0.070449 2.60158 -0.112637 3.23439 0.229551 3.68439L3.97955 8.55939C4.19049 8.83595 4.5233 9.00001 4.87018 9.00001H7.40611L12.5155 14.1094C11.8264 15.4688 12.0467 17.175 13.1858 18.3094L18.4358 23.5594C19.0217 24.1453 19.9733 24.1453 20.5592 23.5594L23.5592 20.5594C24.1452 19.9735 24.1452 19.0219 23.5592 18.436L18.3092 13.186C17.1749 12.0516 15.4686 11.8266 14.1092 12.5156L8.99986 7.40626V4.87501C8.99986 4.52345 8.8358 4.19533 8.55924 3.98439L3.68424 0.234389ZM0.932676 18.5672C0.337363 19.1625 -0.000136504 19.9735 -0.000136504 20.8172C-0.000136504 22.575 1.42486 24 3.18268 24C4.02643 24 4.83736 23.6625 5.43268 23.0672L10.9546 17.5453C10.5889 16.5656 10.5327 15.5016 10.7858 14.4938L7.89361 11.6016L0.932676 18.5672ZM23.9999 6.75001C23.9999 6.25783 23.9483 5.7797 23.8499 5.32033C23.7374 4.79533 23.0952 4.65939 22.7155 5.03908L19.7202 8.03439C19.5796 8.17501 19.3874 8.2547 19.1905 8.2547H16.4999C16.0874 8.2547 15.7499 7.9172 15.7499 7.5047V4.80939C15.7499 4.61251 15.8296 4.42033 15.9702 4.2797L18.9655 1.28439C19.3452 0.904702 19.2092 0.262514 18.6842 0.150014C18.2202 0.0515767 17.7421 1.41745e-05 17.2499 1.41745e-05C13.5233 1.41745e-05 10.4999 3.02345 10.4999 6.75001V6.78751L14.4983 10.786C16.1858 10.3594 18.0514 10.8094 19.3733 12.1313L20.1092 12.8672C22.4061 11.7891 23.9999 9.4547 23.9999 6.75001ZM2.62486 20.25C2.62486 19.9516 2.74339 19.6655 2.95437 19.4545C3.16535 19.2435 3.45149 19.125 3.74986 19.125C4.04823 19.125 4.33438 19.2435 4.54536 19.4545C4.75634 19.6655 4.87486 19.9516 4.87486 20.25C4.87486 20.5484 4.75634 20.8345 4.54536 21.0455C4.33438 21.2565 4.04823 21.375 3.74986 21.375C3.45149 21.375 3.16535 21.2565 2.95437 21.0455C2.74339 20.8345 2.62486 20.5484 2.62486 20.25Z" fill="url(#paint0_linear_702_179)"/>
</g>
<defs>
<linearGradient id="paint0_linear_702_179" x1="11.9992" y1="-0.000549316" x2="11.9992" y2="24" gradientUnits="userSpaceOnUse">
<stop stop-color="#B0FF57"/>
<stop offset="1" stop-color="#66FF31"/>
</linearGradient>
<clipPath id="clip0_702_179">
<rect width="24" height="24" fill="white"/>
</clipPath>
</defs>
</svg>
