<svg width="22" height="22" viewBox="0 0 32 32" fill="none" xmlns="http://www.w3.org/2000/svg">
<path d="M28 16C28 16.0422 28 16.0844 28 16.1266C27.9812 17.8375 26.425 19 24.7141 19H20.125C18.8828 19 17.875 20.0078 17.875 21.25C17.875 21.4094 17.8937 21.5641 17.9219 21.7141C18.0203 22.1922 18.2266 22.6516 18.4281 23.1156C18.7141 23.7625 18.9953 24.4047 18.9953 25.0844C18.9953 26.575 17.9828 27.9297 16.4922 27.9906C16.3281 27.9953 16.1641 28 15.9953 28C9.37187 28 4 22.6281 4 16C4 9.37188 9.37188 4 16 4C22.6281 4 28 9.37188 28 16ZM10 17.5C10 17.1022 9.84196 16.7206 9.56066 16.4393C9.27936 16.158 8.89782 16 8.5 16C8.10218 16 7.72064 16.158 7.43934 16.4393C7.15804 16.7206 7 17.1022 7 17.5C7 17.8978 7.15804 18.2794 7.43934 18.5607C7.72064 18.842 8.10218 19 8.5 19C8.89782 19 9.27936 18.842 9.56066 18.5607C9.84196 18.2794 10 17.8978 10 17.5ZM10 13C10.3978 13 10.7794 12.842 11.0607 12.5607C11.342 12.2794 11.5 11.8978 11.5 11.5C11.5 11.1022 11.342 10.7206 11.0607 10.4393C10.7794 10.158 10.3978 10 10 10C9.60218 10 9.22064 10.158 8.93934 10.4393C8.65804 10.7206 8.5 11.1022 8.5 11.5C8.5 11.8978 8.65804 12.2794 8.93934 12.5607C9.22064 12.842 9.60218 13 10 13ZM17.5 8.5C17.5 8.10218 17.342 7.72064 17.0607 7.43934C16.7794 7.15804 16.3978 7 16 7C15.6022 7 15.2206 7.15804 14.9393 7.43934C14.658 7.72064 14.5 8.10218 14.5 8.5C14.5 8.89782 14.658 9.27936 14.9393 9.56066C15.2206 9.84196 15.6022 10 16 10C16.3978 10 16.7794 9.84196 17.0607 9.56066C17.342 9.27936 17.5 8.89782 17.5 8.5ZM22 13C22.3978 13 22.7794 12.842 23.0607 12.5607C23.342 12.2794 23.5 11.8978 23.5 11.5C23.5 11.1022 23.342 10.7206 23.0607 10.4393C22.7794 10.158 22.3978 10 22 10C21.6022 10 21.2206 10.158 20.9393 10.4393C20.658 10.7206 20.5 11.1022 20.5 11.5C20.5 11.8978 20.658 12.2794 20.9393 12.5607C21.2206 12.842 21.6022 13 22 13Z" fill="url(#paint0_linear_227_224)"/>
<defs>
<linearGradient id="paint0_linear_227_224" x1="16" y1="4" x2="16" y2="28" gradientUnits="userSpaceOnUse">
<stop stop-color="#B0FF57"/>
<stop offset="1" stop-color="#66FF31"/>
</linearGradient>
</defs>
</svg>
