<svg width="22" height="22" viewBox="0 0 32 32" fill="none" xmlns="http://www.w3.org/2000/svg">
<path d="M20.5 19C24.6438 19 28 15.6438 28 11.5C28 10.7828 27.8969 10.0891 27.7094 9.42813C27.5641 8.92188 26.9406 8.80937 26.5703 9.17969L22.9703 12.7797C22.8297 12.9203 22.6375 13 22.4406 13H19.75C19.3375 13 19 12.6625 19 12.25V9.55937C19 9.3625 19.0797 9.17031 19.2203 9.02969L22.8203 5.42969C23.1906 5.05937 23.0734 4.43594 22.5719 4.29062C21.9109 4.10312 21.2172 4 20.5 4C16.3562 4 13 7.35625 13 11.5C13 12.3953 13.1594 13.2578 13.4453 14.0547L4.93281 22.5672C4.3375 23.1625 4 23.9734 4 24.8172C4 26.575 5.425 28 7.18281 28C8.02656 28 8.8375 27.6625 9.43281 27.0672L17.9453 18.5547C18.7422 18.8453 19.6047 19 20.5 19ZM7.75 23.125C8.04837 23.125 8.33452 23.2435 8.5455 23.4545C8.75647 23.6655 8.875 23.9516 8.875 24.25C8.875 24.5484 8.75647 24.8345 8.5455 25.0455C8.33452 25.2565 8.04837 25.375 7.75 25.375C7.45163 25.375 7.16548 25.2565 6.9545 25.0455C6.74353 24.8345 6.625 24.5484 6.625 24.25C6.625 23.9516 6.74353 23.6655 6.9545 23.4545C7.16548 23.2435 7.45163 23.125 7.75 23.125Z" fill="url(#paint0_linear_227_222)"/>
<defs>
<linearGradient id="paint0_linear_227_222" x1="16" y1="4" x2="16" y2="28" gradientUnits="userSpaceOnUse">
<stop stop-color="#B0FF57"/>
<stop offset="1" stop-color="#66FF31"/>
</linearGradient>
</defs>
</svg>
