<svg width="18" height="24" viewBox="0 0 18 24" fill="none" xmlns="http://www.w3.org/2000/svg">
<g clip-path="url(#clip0_702_177)">
<path d="M9 0C7.04063 0 5.37188 1.25156 4.75781 3H3C1.34531 3 0 4.34531 0 6V21C0 22.6547 1.34531 24 3 24H15C16.6547 24 18 22.6547 18 21V6C18 4.34531 16.6547 3 15 3H13.2422C12.6281 1.25156 10.9594 0 9 0ZM9 3C9.39782 3 9.77936 3.15804 10.0607 3.43934C10.342 3.72064 10.5 4.10218 10.5 4.5C10.5 4.89782 10.342 5.27936 10.0607 5.56066C9.77936 5.84196 9.39782 6 9 6C8.60218 6 8.22064 5.84196 7.93934 5.56066C7.65804 5.27936 7.5 4.89782 7.5 4.5C7.5 4.10218 7.65804 3.72064 7.93934 3.43934C8.22064 3.15804 8.60218 3 9 3ZM3.375 12.75C3.375 12.4516 3.49353 12.1655 3.7045 11.9545C3.91548 11.7435 4.20163 11.625 4.5 11.625C4.79837 11.625 5.08452 11.7435 5.2955 11.9545C5.50647 12.1655 5.625 12.4516 5.625 12.75C5.625 13.0484 5.50647 13.3345 5.2955 13.5455C5.08452 13.7565 4.79837 13.875 4.5 13.875C4.20163 13.875 3.91548 13.7565 3.7045 13.5455C3.49353 13.3345 3.375 13.0484 3.375 12.75ZM8.25 12H14.25C14.6625 12 15 12.3375 15 12.75C15 13.1625 14.6625 13.5 14.25 13.5H8.25C7.8375 13.5 7.5 13.1625 7.5 12.75C7.5 12.3375 7.8375 12 8.25 12ZM3.375 17.25C3.375 16.9516 3.49353 16.6655 3.7045 16.4545C3.91548 16.2435 4.20163 16.125 4.5 16.125C4.79837 16.125 5.08452 16.2435 5.2955 16.4545C5.50647 16.6655 5.625 16.9516 5.625 17.25C5.625 17.5484 5.50647 17.8345 5.2955 18.0455C5.08452 18.2565 4.79837 18.375 4.5 18.375C4.20163 18.375 3.91548 18.2565 3.7045 18.0455C3.49353 17.8345 3.375 17.5484 3.375 17.25ZM7.5 17.25C7.5 16.8375 7.8375 16.5 8.25 16.5H14.25C14.6625 16.5 15 16.8375 15 17.25C15 17.6625 14.6625 18 14.25 18H8.25C7.8375 18 7.5 17.6625 7.5 17.25Z" fill="url(#paint0_linear_702_177)"/>
</g>
<defs>
<linearGradient id="paint0_linear_702_177" x1="9" y1="0" x2="9" y2="24" gradientUnits="userSpaceOnUse">
<stop stop-color="#B0FF57"/>
<stop offset="1" stop-color="#66FF31"/>
</linearGradient>
<clipPath id="clip0_702_177">
<rect width="18" height="24" fill="white"/>
</clipPath>
</defs>
</svg>
