<svg width="21" height="22" viewBox="0 0 23 24" fill="none" xmlns="http://www.w3.org/2000/svg">
<path d="M11.75 4.49999C8.06563 4.49999 4.94844 6.91405 3.88906 10.2422C5.46406 9.4453 7.24062 8.99999 9.125 8.99999H13.25C13.6625 8.99999 14 9.33749 14 9.74999C14 10.1625 13.6625 10.5 13.25 10.5H12.5H9.125C8.34687 10.5 7.59219 10.5891 6.86563 10.7531C5.65156 11.0297 4.52188 11.5219 3.51875 12.1922C0.795313 14.0062 -1 17.1047 -1 20.625V21.375C-1 21.9984 -0.498438 22.5 0.125 22.5C0.748438 22.5 1.25 21.9984 1.25 21.375V20.625C1.25 18.3422 2.22031 16.2891 3.77188 14.85C4.7 18.3891 7.92031 21 11.75 21H11.7969C17.9891 20.9672 23 14.8641 23 7.34061C23 5.34374 22.6484 3.4453 22.0109 1.73436C21.8891 1.41093 21.4156 1.42499 21.2516 1.72968C20.3703 3.37968 18.6266 4.49999 16.625 4.49999H11.75Z" fill="url(#paint0_linear_700_93)"/>
<defs>
<linearGradient id="paint0_linear_700_93" x1="11" y1="1.49646" x2="11" y2="22.5" gradientUnits="userSpaceOnUse">
<stop stop-color="#4169E1"/>
<stop offset="1" stop-color="#304AD3"/>
</linearGradient>
</defs>
</svg>
