<svg width="130" height="28" viewBox="0 0 130 28" fill="none" xmlns="http://www.w3.org/2000/svg">
<path d="M19.5857 17.8849C19.5857 19.3887 19.3291 20.7613 18.8159 22.0026C18.3026 23.2438 17.6044 24.312 16.7212 25.2072C15.838 26.0904 14.7997 26.7766 13.6061 27.266C12.4246 27.7553 11.1535 28 9.79284 28C8.44416 28 7.17306 27.7494 5.97954 27.2481C4.79795 26.7468 3.75959 26.0486 2.86445 25.1535C1.98124 24.2583 1.28303 23.1961 0.769821 21.9668C0.256607 20.7255 0 19.3649 0 17.8849V0.841432H4.90537V9.79284C5.16795 9.45865 5.48423 9.16027 5.85422 8.8977C6.23615 8.63512 6.64194 8.42029 7.07161 8.2532C7.51321 8.0861 7.96675 7.96078 8.43223 7.87724C8.8977 7.78176 9.35124 7.73402 9.79284 7.73402C11.1535 7.73402 12.4246 7.99062 13.6061 8.50384C14.7997 9.00512 15.838 9.70929 16.7212 10.6164C17.6044 11.5234 18.3026 12.5976 18.8159 13.8389C19.3291 15.0682 19.5857 16.4169 19.5857 17.8849ZM14.6624 17.8849C14.6624 17.1449 14.5311 16.4587 14.2685 15.8261C14.0179 15.1816 13.6718 14.6266 13.2302 14.1611C12.7886 13.6957 12.2694 13.3316 11.6726 13.0691C11.0878 12.8065 10.4612 12.6752 9.79284 12.6752C9.12447 12.6752 8.4919 12.8244 7.89514 13.1228C7.31032 13.4092 6.7971 13.7971 6.3555 14.2864C5.9139 14.7639 5.56777 15.3188 5.31714 15.9514C5.0665 16.572 4.94118 17.2165 4.94118 17.8849C4.94118 18.6249 5.0665 19.3112 5.31714 19.9437C5.56777 20.5763 5.9139 21.1253 6.3555 21.5908C6.7971 22.0563 7.31032 22.4263 7.89514 22.7008C8.4919 22.9633 9.12447 23.0946 9.79284 23.0946C10.4612 23.0946 11.0878 22.9633 11.6726 22.7008C12.2694 22.4263 12.7886 22.0563 13.2302 21.5908C13.6718 21.1253 14.0179 20.5763 14.2685 19.9437C14.5311 19.3112 14.6624 18.6249 14.6624 17.8849Z" fill="white"/>
<path d="M28.0716 3.25831C28.0716 3.71185 27.9821 4.13555 27.8031 4.52941C27.636 4.92327 27.4032 5.26939 27.1049 5.56778C26.8065 5.85422 26.4544 6.08696 26.0486 6.26599C25.6547 6.43308 25.231 6.51662 24.7775 6.51662C24.324 6.51662 23.8943 6.43308 23.4885 6.26599C23.0946 6.08696 22.7485 5.85422 22.4501 5.56778C22.1637 5.26939 21.9309 4.92327 21.7519 4.52941C21.5848 4.13555 21.5013 3.71185 21.5013 3.25831C21.5013 2.81671 21.5848 2.39898 21.7519 2.00512C21.9309 1.59932 22.1637 1.2532 22.4501 0.966752C22.7485 0.668372 23.0946 0.435635 23.4885 0.268542C23.8943 0.0895141 24.324 0 24.7775 0C25.231 0 25.6547 0.0895141 26.0486 0.268542C26.4544 0.435635 26.8065 0.668372 27.1049 0.966752C27.4032 1.2532 27.636 1.59932 27.8031 2.00512C27.9821 2.39898 28.0716 2.81671 28.0716 3.25831ZM27.2302 27.6419H22.3069V8.46803H27.2302V27.6419Z" fill="white"/>
<path d="M35.8951 27.6419H30.9719V0.841432H35.8951V17.7417L43.1816 8.50384H48.8031L42.4476 16.4885L48.8031 27.6419H43.1816L39.2967 20.6777L35.8951 25.1893V27.6419Z" fill="white"/>
<path d="M57.7545 22.9514C57.9454 23.0111 58.1364 23.0529 58.3274 23.0767C58.5183 23.0887 58.7093 23.0946 58.9003 23.0946C59.3777 23.0946 59.8372 23.029 60.2788 22.8977C60.7204 22.7664 61.1321 22.5814 61.5141 22.3427C61.9079 22.0921 62.254 21.7937 62.5524 21.4476C62.8627 21.0895 63.1134 20.6957 63.3043 20.266L66.8849 23.8645C66.4314 24.509 65.9062 25.0878 65.3095 25.601C64.7246 26.1142 64.0861 26.5499 63.3939 26.9079C62.7136 27.266 61.9915 27.5345 61.2276 27.7136C60.4757 27.9045 59.6999 28 58.9003 28C57.5516 28 56.2805 27.7494 55.087 27.2481C53.9054 26.7468 52.867 26.0486 51.9719 25.1535C51.0887 24.2583 50.3904 23.1961 49.8772 21.9668C49.364 20.7255 49.1074 19.3649 49.1074 17.8849C49.1074 16.3691 49.364 14.9847 49.8772 13.7315C50.3904 12.4783 51.0887 11.4101 51.9719 10.5269C52.867 9.64365 53.9054 8.95737 55.087 8.46803C56.2805 7.97869 57.5516 7.73402 58.9003 7.73402C59.6999 7.73402 60.4817 7.8295 61.2455 8.02046C62.0094 8.21142 62.7315 8.48593 63.4118 8.84399C64.104 9.20205 64.7485 9.64365 65.3453 10.1688C65.942 10.682 66.4672 11.2609 66.9207 11.9054L57.7545 22.9514ZM60.2609 12.8721C60.0341 12.7886 59.8073 12.7349 59.5806 12.711C59.3657 12.6871 59.139 12.6752 58.9003 12.6752C58.2319 12.6752 57.5993 12.8005 57.0026 13.0512C56.4177 13.2899 55.9045 13.636 55.4629 14.0895C55.0332 14.5431 54.6931 15.0921 54.4425 15.7366C54.1918 16.3691 54.0665 17.0853 54.0665 17.8849C54.0665 18.0639 54.0725 18.2668 54.0844 18.4936C54.1083 18.7204 54.1381 18.9531 54.1739 19.1918C54.2217 19.4186 54.2754 19.6394 54.335 19.8542C54.3947 20.0691 54.4723 20.26 54.5678 20.4271L60.2609 12.8721Z" fill="white"/>
<path d="M74.2788 27.6419H69.3913V0.841432H74.2788V9.30946C74.8636 8.86786 75.4663 8.55754 76.087 8.37852C76.7076 8.18755 77.3401 8.09207 77.9846 8.09207C79.1662 8.09207 80.2762 8.31884 81.3146 8.77238C82.3529 9.21398 83.254 9.82864 84.0179 10.6164C84.7937 11.3922 85.4024 12.3052 85.844 13.3555C86.2975 14.3939 86.5243 15.5038 86.5243 16.6854V27.6419H81.601V16.6854H81.6368C81.6368 16.1841 81.5413 15.7127 81.3504 15.2711C81.1594 14.8176 80.8968 14.4237 80.5627 14.0895C80.2285 13.7553 79.8406 13.4928 79.399 13.3018C78.9574 13.1108 78.4859 13.0153 77.9846 13.0153C77.4714 13.0153 76.9881 13.1108 76.5345 13.3018C76.081 13.4928 75.6871 13.7553 75.3529 14.0895C75.0188 14.4237 74.7562 14.8176 74.5652 15.2711C74.3743 15.7127 74.2788 16.1841 74.2788 16.6854V27.6419Z" fill="white"/>
<path d="M103.962 25.4041C103.568 25.7621 103.144 26.1023 102.691 26.4246C102.249 26.7349 101.783 27.0094 101.294 27.2481C100.805 27.4749 100.298 27.6539 99.7724 27.7852C99.2592 27.9284 98.734 28 98.1969 28C97.0153 28 95.9054 27.7911 94.867 27.3734C93.8286 26.9557 92.9156 26.3649 92.1279 25.601C91.3521 24.8252 90.7374 23.8883 90.2839 22.7903C89.8423 21.6803 89.6215 20.439 89.6215 19.0665V8.46803H94.491V19.0665C94.491 19.711 94.5865 20.2899 94.7775 20.8031C94.9804 21.3043 95.2489 21.728 95.5831 22.0742C95.9173 22.4203 96.3052 22.6829 96.7468 22.8619C97.2003 23.0409 97.6837 23.1304 98.1969 23.1304C98.6982 23.1304 99.1696 23.0171 99.6113 22.7903C100.065 22.5516 100.459 22.2413 100.793 21.8593C101.127 21.4774 101.39 21.0477 101.581 20.5703C101.772 20.081 101.867 19.5797 101.867 19.0665V8.46803H106.754V27.6419H105.573L103.962 25.4041Z" fill="white"/>
<path d="M129.688 17.8849C129.688 19.3887 129.431 20.7613 128.918 22.0026C128.405 23.2438 127.707 24.312 126.824 25.2072C125.94 26.0904 124.902 26.7766 123.708 27.266C122.527 27.7553 121.256 28 119.895 28C118.546 28 117.275 27.7494 116.082 27.2481C114.9 26.7468 113.862 26.0486 112.967 25.1535C112.084 24.2583 111.385 23.1961 110.872 21.9668C110.359 20.7255 110.102 19.3649 110.102 17.8849V0.841432H115.008V9.79284C115.27 9.45865 115.587 9.16027 115.957 8.8977C116.338 8.63512 116.744 8.42029 117.174 8.2532C117.616 8.0861 118.069 7.96078 118.535 7.87724C119 7.78176 119.454 7.73402 119.895 7.73402C121.256 7.73402 122.527 7.99062 123.708 8.50384C124.902 9.00512 125.94 9.70929 126.824 10.6164C127.707 11.5234 128.405 12.5976 128.918 13.8389C129.431 15.0682 129.688 16.4169 129.688 17.8849ZM124.765 17.8849C124.765 17.1449 124.633 16.4587 124.371 15.8261C124.12 15.1816 123.774 14.6266 123.332 14.1611C122.891 13.6957 122.372 13.3316 121.775 13.0691C121.19 12.8065 120.564 12.6752 119.895 12.6752C119.227 12.6752 118.594 12.8244 117.997 13.1228C117.413 13.4092 116.899 13.7971 116.458 14.2864C116.016 14.7639 115.67 15.3188 115.419 15.9514C115.169 16.572 115.043 17.2165 115.043 17.8849C115.043 18.6249 115.169 19.3112 115.419 19.9437C115.67 20.5763 116.016 21.1253 116.458 21.5908C116.899 22.0563 117.413 22.4263 117.997 22.7008C118.594 22.9633 119.227 23.0946 119.895 23.0946C120.564 23.0946 121.19 22.9633 121.775 22.7008C122.372 22.4263 122.891 22.0563 123.332 21.5908C123.774 21.1253 124.12 20.5763 124.371 19.9437C124.633 19.3112 124.765 18.6249 124.765 17.8849Z" fill="white"/>
</svg>
